<svg width="17" height="13" viewBox="0 0 17 13" fill="none" xmlns="http://www.w3.org/2000/svg">
<path d="M14.3261 0.434933C14.3112 0.448748 14.2972 0.463452 14.2843 0.478957L7.01796 9.33367L2.63892 5.14344C2.34145 4.87834 1.94802 4.73402 1.54149 4.74088C1.13497 4.74774 0.7471 4.90524 0.4596 5.18022C0.1721 5.45519 0.0074171 5.82616 0.000244472 6.21497C-0.00692815 6.60378 0.14397 6.98007 0.421149 7.26457L5.9572 12.5614C6.10633 12.7038 6.28393 12.816 6.47938 12.8913C6.67484 12.9666 6.88415 13.0035 7.09484 12.9997C7.30552 12.996 7.51326 12.9517 7.70567 12.8695C7.89807 12.7873 8.0712 12.6689 8.21471 12.5214L16.5669 2.53605C16.8513 2.25056 17.0068 1.86949 16.9998 1.47522C16.9927 1.08096 16.8238 0.705174 16.5294 0.429119C16.235 0.153064 15.8388 -0.00108222 15.4265 5.71993e-06C15.0142 0.00109366 14.6189 0.157328 14.3261 0.434933Z" fill="#2BCA3C"/>
</svg>
